<?xml version="1.0" standalone="no"?>
<!DOCTYPE svg PUBLIC "-//W3C//DTD SVG 20010904//EN"
 "http://www.w3.org/TR/2001/REC-SVG-20010904/DTD/svg10.dtd">
<svg version="1.0" xmlns="http://www.w3.org/2000/svg"
 width="512.000000pt" height="512.000000pt" viewBox="0 0 512.000000 512.000000"
 preserveAspectRatio="xMidYMid meet">
<metadata>
Created by potrace 1.16, written by Peter Selinger 2001-2019
</metadata>
<g transform="translate(0.000000,512.000000) scale(0.100000,-0.100000)"
fill="#000000" stroke="none">
<path d="M864 5109 c-77 -13 -211 -57 -284 -94 -263 -133 -456 -366 -547 -660
l-28 -90 0 -1705 0 -1705 28 -90 c112 -363 369 -620 732 -732 l90 -28 1705 0
1705 0 90 28 c363 112 620 369 732 732 l28 90 0 1705 0 1705 -28 90 c-112 363
-369 620 -732 732 l-90 28 -1675 1 c-921 1 -1698 -2 -1726 -7z m1962 -1074
c339 -46 618 -157 873 -348 535 -399 702 -1044 410 -1585 -239 -445 -735 -754
-1321 -822 -132 -16 -460 -7 -568 14 -41 9 -104 21 -140 27 l-65 11 -290 -149
c-159 -82 -291 -146 -293 -142 -1 3 15 114 38 247 22 132 40 249 40 259 0 12
-25 38 -67 68 -298 216 -496 513 -558 839 -22 112 -20 312 4 428 123 594 676
1051 1396 1153 128 18 409 18 541 0z"/>
</g>
</svg>
