<?xml version="1.0" standalone="no"?>
<!DOCTYPE svg PUBLIC "-//W3C//DTD SVG 20010904//EN"
 "http://www.w3.org/TR/2001/REC-SVG-20010904/DTD/svg10.dtd">
<svg version="1.0" xmlns="http://www.w3.org/2000/svg"
 width="512.000000pt" height="512.000000pt" viewBox="0 0 512.000000 512.000000"
 preserveAspectRatio="xMidYMid meet">
<metadata>
Created by potrace 1.16, written by Peter Selinger 2001-2019
</metadata>
<g transform="translate(0.000000,512.000000) scale(0.100000,-0.100000)"
fill="#000000" stroke="none">
<path d="M1627 3492 c-895 -895 -1627 -1632 -1627 -1637 0 -6 103 -113 229
-239 l229 -229 49 42 c189 167 477 204 706 90 76 -37 111 -62 170 -118 213
-202 264 -531 122 -786 -18 -33 -52 -82 -76 -108 l-42 -49 229 -229 c126 -126
233 -229 239 -229 13 0 3265 3252 3265 3265 0 6 -103 113 -229 239 l-229 229
-49 -42 c-189 -167 -477 -204 -706 -90 -76 37 -111 62 -170 118 -213 202 -264
531 -122 786 18 33 52 82 76 108 l42 49 -229 229 c-126 126 -233 229 -239 229
-5 0 -742 -732 -1638 -1628z m1031 -89 l-103 -103 -102 102 -103 103 102 102
103 103 102 -102 103 -103 -102 -102z m427 -223 l100 -100 -103 -103 -102
-102 -102 102 -103 103 100 100 c55 55 102 100 105 100 3 0 50 -45 105 -100z
m428 -428 l97 -97 -103 -103 -102 -102 -100 100 -100 100 100 100 c55 55 102
100 105 100 3 0 49 -44 103 -98z"/>
</g>
</svg>
